<?xml version='1.0' encoding='UTF-8'?>
<svg width="45mm" height="45mm" version="1.1" viewBox="0 0 45 45" xmlns="http://www.w3.org/2000/svg"><rect fill="white" x="0" y="0" width="100%" height="100%" /><path d="M2,2H3V3H2zM3,2H4V3H3zM4,2H5V3H4zM5,2H6V3H5zM6,2H7V3H6zM7,2H8V3H7zM8,2H9V3H8zM10,2H11V3H10zM11,2H12V3H11zM15,2H16V3H15zM19,2H20V3H19zM20,2H21V3H20zM21,2H22V3H21zM22,2H23V3H22zM23,2H24V3H23zM25,2H26V3H25zM32,2H33V3H32zM33,2H34V3H33zM34,2H35V3H34zM36,2H37V3H36zM37,2H38V3H37zM38,2H39V3H38zM39,2H40V3H39zM40,2H41V3H40zM41,2H42V3H41zM42,2H43V3H42zM2,3H3V4H2zM8,3H9V4H8zM10,3H11V4H10zM16,3H17V4H16zM17,3H18V4H17zM18,3H19V4H18zM20,3H21V4H20zM25,3H26V4H25zM26,3H27V4H26zM30,3H31V4H30zM31,3H32V4H31zM36,3H37V4H36zM42,3H43V4H42zM2,4H3V5H2zM4,4H5V5H4zM5,4H6V5H5zM6,4H7V5H6zM8,4H9V5H8zM11,4H12V5H11zM15,4H16V5H15zM16,4H17V5H16zM17,4H18V5H17zM19,4H20V5H19zM21,4H22V5H21zM26,4H27V5H26zM27,4H28V5H27zM28,4H29V5H28zM30,4H31V5H30zM32,4H33V5H32zM34,4H35V5H34zM36,4H37V5H36zM38,4H39V5H38zM39,4H40V5H39zM40,4H41V5H40zM42,4H43V5H42zM2,5H3V6H2zM4,5H5V6H4zM5,5H6V6H5zM6,5H7V6H6zM8,5H9V6H8zM10,5H11V6H10zM12,5H13V6H12zM13,5H14V6H13zM15,5H16V6H15zM17,5H18V6H17zM18,5H19V6H18zM24,5H25V6H24zM26,5H27V6H26zM27,5H28V6H27zM28,5H29V6H28zM29,5H30V6H29zM31,5H32V6H31zM32,5H33V6H32zM33,5H34V6H33zM36,5H37V6H36zM38,5H39V6H38zM39,5H40V6H39zM40,5H41V6H40zM42,5H43V6H42zM2,6H3V7H2zM4,6H5V7H4zM5,6H6V7H5zM6,6H7V7H6zM8,6H9V7H8zM11,6H12V7H11zM13,6H14V7H13zM14,6H15V7H14zM16,6H17V7H16zM18,6H19V7H18zM19,6H20V7H19zM21,6H22V7H21zM23,6H24V7H23zM24,6H25V7H24zM26,6H27V7H26zM28,6H29V7H28zM29,6H30V7H29zM30,6H31V7H30zM31,6H32V7H31zM33,6H34V7H33zM36,6H37V7H36zM38,6H39V7H38zM39,6H40V7H39zM40,6H41V7H40zM42,6H43V7H42zM2,7H3V8H2zM8,7H9V8H8zM11,7H12V8H11zM12,7H13V8H12zM16,7H17V8H16zM17,7H18V8H17zM19,7H20V8H19zM21,7H22V8H21zM23,7H24V8H23zM26,7H27V8H26zM31,7H32V8H31zM32,7H33V8H32zM33,7H34V8H33zM36,7H37V8H36zM42,7H43V8H42zM2,8H3V9H2zM3,8H4V9H3zM4,8H5V9H4zM5,8H6V9H5zM6,8H7V9H6zM7,8H8V9H7zM8,8H9V9H8zM10,8H11V9H10zM12,8H13V9H12zM14,8H15V9H14zM16,8H17V9H16zM18,8H19V9H18zM20,8H21V9H20zM22,8H23V9H22zM24,8H25V9H24zM26,8H27V9H26zM28,8H29V9H28zM30,8H31V9H30zM32,8H33V9H32zM34,8H35V9H34zM36,8H37V9H36zM37,8H38V9H37zM38,8H39V9H38zM39,8H40V9H39zM40,8H41V9H40zM41,8H42V9H41zM42,8H43V9H42zM10,9H11V10H10zM11,9H12V10H11zM12,9H13V10H12zM14,9H15V10H14zM15,9H16V10H15zM17,9H18V10H17zM19,9H20V10H19zM24,9H25V10H24zM25,9H26V10H25zM28,9H29V10H28zM31,9H32V10H31zM32,9H33V10H32zM33,9H34V10H33zM34,9H35V10H34zM2,10H3V11H2zM4,10H5V11H4zM5,10H6V11H5zM7,10H8V11H7zM8,10H9V11H8zM9,10H10V11H9zM11,10H12V11H11zM12,10H13V11H12zM13,10H14V11H13zM15,10H16V11H15zM16,10H17V11H16zM17,10H18V11H17zM19,10H20V11H19zM20,10H21V11H20zM22,10H23V11H22zM23,10H24V11H23zM25,10H26V11H25zM30,10H31V11H30zM31,10H32V11H31zM32,10H33V11H32zM33,10H34V11H33zM36,10H37V11H36zM39,10H40V11H39zM41,10H42V11H41zM42,10H43V11H42zM2,11H3V12H2zM3,11H4V12H3zM4,11H5V12H4zM5,11H6V12H5zM7,11H8V12H7zM10,11H11V12H10zM11,11H12V12H11zM16,11H17V12H16zM17,11H18V12H17zM18,11H19V12H18zM20,11H21V12H20zM21,11H22V12H21zM22,11H23V12H22zM23,11H24V12H23zM25,11H26V12H25zM26,11H27V12H26zM27,11H28V12H27zM30,11H31V12H30zM32,11H33V12H32zM33,11H34V12H33zM34,11H35V12H34zM36,11H37V12H36zM37,11H38V12H37zM38,11H39V12H38zM40,11H41V12H40zM41,11H42V12H41zM42,11H43V12H42zM4,12H5V13H4zM5,12H6V13H5zM7,12H8V13H7zM8,12H9V13H8zM9,12H10V13H9zM10,12H11V13H10zM13,12H14V13H13zM15,12H16V13H15zM18,12H19V13H18zM19,12H20V13H19zM20,12H21V13H20zM24,12H25V13H24zM25,12H26V13H25zM26,12H27V13H26zM27,12H28V13H27zM30,12H31V13H30zM38,12H39V13H38zM40,12H41V13H40zM41,12H42V13H41zM3,13H4V14H3zM4,13H5V14H4zM5,13H6V14H5zM9,13H10V14H9zM10,13H11V14H10zM11,13H12V14H11zM12,13H13V14H12zM15,13H16V14H15zM18,13H19V14H18zM20,13H21V14H20zM21,13H22V14H21zM22,13H23V14H22zM24,13H25V14H24zM26,13H27V14H26zM27,13H28V14H27zM34,13H35V14H34zM35,13H36V14H35zM36,13H37V14H36zM37,13H38V14H37zM38,13H39V14H38zM42,13H43V14H42zM3,14H4V15H3zM4,14H5V15H4zM8,14H9V15H8zM10,14H11V15H10zM11,14H12V15H11zM14,14H15V15H14zM15,14H16V15H15zM18,14H19V15H18zM19,14H20V15H19zM22,14H23V15H22zM25,14H26V15H25zM26,14H27V15H26zM27,14H28V15H27zM28,14H29V15H28zM29,14H30V15H29zM31,14H32V15H31zM33,14H34V15H33zM34,14H35V15H34zM39,14H40V15H39zM40,14H41V15H40zM41,14H42V15H41zM42,14H43V15H42zM6,15H7V16H6zM9,15H10V16H9zM15,15H16V16H15zM17,15H18V16H17zM18,15H19V16H18zM22,15H23V16H22zM26,15H27V16H26zM27,15H28V16H27zM28,15H29V16H28zM29,15H30V16H29zM30,15H31V16H30zM31,15H32V16H31zM33,15H34V16H33zM34,15H35V16H34zM36,15H37V16H36zM39,15H40V16H39zM41,15H42V16H41zM42,15H43V16H42zM2,16H3V17H2zM4,16H5V17H4zM5,16H6V17H5zM6,16H7V17H6zM8,16H9V17H8zM9,16H10V17H9zM10,16H11V17H10zM11,16H12V17H11zM12,16H13V17H12zM14,16H15V17H14zM17,16H18V17H17zM20,16H21V17H20zM21,16H22V17H21zM22,16H23V17H22zM23,16H24V17H23zM24,16H25V17H24zM28,16H29V17H28zM30,16H31V17H30zM33,16H34V17H33zM36,16H37V17H36zM37,16H38V17H37zM40,16H41V17H40zM41,16H42V17H41zM42,16H43V17H42zM3,17H4V18H3zM5,17H6V18H5zM6,17H7V18H6zM9,17H10V18H9zM11,17H12V18H11zM13,17H14V18H13zM14,17H15V18H14zM17,17H18V18H17zM20,17H21V18H20zM23,17H24V18H23zM25,17H26V18H25zM29,17H30V18H29zM30,17H31V18H30zM33,17H34V18H33zM34,17H35V18H34zM36,17H37V18H36zM37,17H38V18H37zM39,17H40V18H39zM3,18H4V19H3zM5,18H6V19H5zM6,18H7V19H6zM7,18H8V19H7zM8,18H9V19H8zM9,18H10V19H9zM10,18H11V19H10zM11,18H12V19H11zM15,18H16V19H15zM16,18H17V19H16zM17,18H18V19H17zM22,18H23V19H22zM23,18H24V19H23zM24,18H25V19H24zM27,18H28V19H27zM28,18H29V19H28zM30,18H31V19H30zM32,18H33V19H32zM34,18H35V19H34zM38,18H39V19H38zM41,18H42V19H41zM4,19H5V20H4zM7,19H8V20H7zM10,19H11V20H10zM15,19H16V20H15zM18,19H19V20H18zM22,19H23V20H22zM25,19H26V20H25zM26,19H27V20H26zM27,19H28V20H27zM28,19H29V20H28zM29,19H30V20H29zM30,19H31V20H30zM31,19H32V20H31zM34,19H35V20H34zM35,19H36V20H35zM37,19H38V20H37zM39,19H40V20H39zM4,20H5V21H4zM8,20H9V21H8zM9,20H10V21H9zM10,20H11V21H10zM12,20H13V21H12zM13,20H14V21H13zM14,20H15V21H14zM15,20H16V21H15zM16,20H17V21H16zM17,20H18V21H17zM18,20H19V21H18zM20,20H21V21H20zM22,20H23V21H22zM23,20H24V21H23zM26,20H27V21H26zM27,20H28V21H27zM29,20H30V21H29zM31,20H32V21H31zM38,20H39V21H38zM39,20H40V21H39zM40,20H41V21H40zM41,20H42V21H41zM4,21H5V22H4zM5,21H6V22H5zM11,21H12V22H11zM12,21H13V22H12zM15,21H16V22H15zM17,21H18V22H17zM18,21H19V22H18zM19,21H20V22H19zM20,21H21V22H20zM21,21H22V22H21zM25,21H26V22H25zM26,21H27V22H26zM28,21H29V22H28zM29,21H30V22H29zM30,21H31V22H30zM31,21H32V22H31zM35,21H36V22H35zM36,21H37V22H36zM37,21H38V22H37zM40,21H41V22H40zM41,21H42V22H41zM2,22H3V23H2zM8,22H9V23H8zM10,22H11V23H10zM11,22H12V23H11zM12,22H13V23H12zM15,22H16V23H15zM23,22H24V23H23zM28,22H29V23H28zM30,22H31V23H30zM31,22H32V23H31zM34,22H35V23H34zM35,22H36V23H35zM36,22H37V23H36zM38,22H39V23H38zM39,22H40V23H39zM40,22H41V23H40zM41,22H42V23H41zM2,23H3V24H2zM3,23H4V24H3zM7,23H8V24H7zM11,23H12V24H11zM14,23H15V24H14zM15,23H16V24H15zM21,23H22V24H21zM22,23H23V24H22zM23,23H24V24H23zM25,23H26V24H25zM27,23H28V24H27zM28,23H29V24H28zM30,23H31V24H30zM31,23H32V24H31zM33,23H34V24H33zM34,23H35V24H34zM35,23H36V24H35zM36,23H37V24H36zM37,23H38V24H37zM38,23H39V24H38zM40,23H41V24H40zM41,23H42V24H41zM42,23H43V24H42zM3,24H4V25H3zM5,24H6V25H5zM8,24H9V25H8zM9,24H10V25H9zM11,24H12V25H11zM13,24H14V25H13zM15,24H16V25H15zM16,24H17V25H16zM17,24H18V25H17zM19,24H20V25H19zM20,24H21V25H20zM25,24H26V25H25zM26,24H27V25H26zM27,24H28V25H27zM30,24H31V25H30zM31,24H32V25H31zM35,24H36V25H35zM37,24H38V25H37zM38,24H39V25H38zM39,24H40V25H39zM40,24H41V25H40zM41,24H42V25H41zM2,25H3V26H2zM5,25H6V26H5zM6,25H7V26H6zM12,25H13V26H12zM16,25H17V26H16zM21,25H22V26H21zM22,25H23V26H22zM25,25H26V26H25zM26,25H27V26H26zM27,25H28V26H27zM32,25H33V26H32zM33,25H34V26H33zM35,25H36V26H35zM41,25H42V26H41zM42,25H43V26H42zM3,26H4V27H3zM6,26H7V27H6zM7,26H8V27H7zM8,26H9V27H8zM9,26H10V27H9zM10,26H11V27H10zM11,26H12V27H11zM13,26H14V27H13zM15,26H16V27H15zM17,26H18V27H17zM19,26H20V27H19zM22,26H23V27H22zM24,26H25V27H24zM25,26H26V27H25zM26,26H27V27H26zM27,26H28V27H27zM28,26H29V27H28zM30,26H31V27H30zM31,26H32V27H31zM33,26H34V27H33zM39,26H40V27H39zM40,26H41V27H40zM2,27H3V28H2zM5,27H6V28H5zM9,27H10V28H9zM11,27H12V28H11zM16,27H17V28H16zM17,27H18V28H17zM18,27H19V28H18zM19,27H20V28H19zM21,27H22V28H21zM23,27H24V28H23zM26,27H27V28H26zM28,27H29V28H28zM29,27H30V28H29zM30,27H31V28H30zM31,27H32V28H31zM32,27H33V28H32zM33,27H34V28H33zM34,27H35V28H34zM36,27H37V28H36zM39,27H40V28H39zM40,27H41V28H40zM42,27H43V28H42zM2,28H3V29H2zM3,28H4V29H3zM8,28H9V29H8zM10,28H11V29H10zM14,28H15V29H14zM15,28H16V29H15zM17,28H18V29H17zM21,28H22V29H21zM22,28H23V29H22zM23,28H24V29H23zM26,28H27V29H26zM27,28H28V29H27zM28,28H29V29H28zM30,28H31V29H30zM33,28H34V29H33zM34,28H35V29H34zM35,28H36V29H35zM39,28H40V29H39zM41,28H42V29H41zM42,28H43V29H42zM3,29H4V30H3zM5,29H6V30H5zM7,29H8V30H7zM10,29H11V30H10zM12,29H13V30H12zM13,29H14V30H13zM15,29H16V30H15zM16,29H17V30H16zM21,29H22V30H21zM22,29H23V30H22zM23,29H24V30H23zM24,29H25V30H24zM25,29H26V30H25zM29,29H30V30H29zM33,29H34V30H33zM34,29H35V30H34zM35,29H36V30H35zM37,29H38V30H37zM38,29H39V30H38zM39,29H40V30H39zM42,29H43V30H42zM3,30H4V31H3zM6,30H7V31H6zM8,30H9V31H8zM9,30H10V31H9zM12,30H13V31H12zM13,30H14V31H13zM14,30H15V31H14zM16,30H17V31H16zM17,30H18V31H17zM18,30H19V31H18zM20,30H21V31H20zM21,30H22V31H21zM22,30H23V31H22zM23,30H24V31H23zM24,30H25V31H24zM27,30H28V31H27zM29,30H30V31H29zM32,30H33V31H32zM33,30H34V31H33zM37,30H38V31H37zM38,30H39V31H38zM39,30H40V31H39zM41,30H42V31H41zM4,31H5V32H4zM5,31H6V32H5zM11,31H12V32H11zM12,31H13V32H12zM14,31H15V32H14zM15,31H16V32H15zM18,31H19V32H18zM19,31H20V32H19zM20,31H21V32H20zM21,31H22V32H21zM22,31H23V32H22zM25,31H26V32H25zM27,31H28V32H27zM28,31H29V32H28zM29,31H30V32H29zM34,31H35V32H34zM39,31H40V32H39zM2,32H3V33H2zM5,32H6V33H5zM6,32H7V33H6zM7,32H8V33H7zM8,32H9V33H8zM10,32H11V33H10zM13,32H14V33H13zM16,32H17V33H16zM21,32H22V33H21zM23,32H24V33H23zM24,32H25V33H24zM29,32H30V33H29zM30,32H31V33H30zM34,32H35V33H34zM35,32H36V33H35zM36,32H37V33H36zM38,32H39V33H38zM39,32H40V33H39zM6,33H7V34H6zM9,33H10V34H9zM10,33H11V34H10zM11,33H12V34H11zM14,33H15V34H14zM15,33H16V34H15zM18,33H19V34H18zM19,33H20V34H19zM20,33H21V34H20zM21,33H22V34H21zM24,33H25V34H24zM26,33H27V34H26zM30,33H31V34H30zM31,33H32V34H31zM36,33H37V34H36zM38,33H39V34H38zM39,33H40V34H39zM40,33H41V34H40zM41,33H42V34H41zM42,33H43V34H42zM3,34H4V35H3zM4,34H5V35H4zM5,34H6V35H5zM6,34H7V35H6zM7,34H8V35H7zM8,34H9V35H8zM9,34H10V35H9zM11,34H12V35H11zM12,34H13V35H12zM13,34H14V35H13zM16,34H17V35H16zM17,34H18V35H17zM18,34H19V35H18zM19,34H20V35H19zM20,34H21V35H20zM23,34H24V35H23zM29,34H30V35H29zM31,34H32V35H31zM34,34H35V35H34zM35,34H36V35H35zM36,34H37V35H36zM37,34H38V35H37zM38,34H39V35H38zM39,34H40V35H39zM40,34H41V35H40zM42,34H43V35H42zM10,35H11V36H10zM11,35H12V36H11zM13,35H14V36H13zM17,35H18V36H17zM18,35H19V36H18zM19,35H20V36H19zM20,35H21V36H20zM21,35H22V36H21zM25,35H26V36H25zM30,35H31V36H30zM32,35H33V36H32zM34,35H35V36H34zM38,35H39V36H38zM39,35H40V36H39zM40,35H41V36H40zM41,35H42V36H41zM42,35H43V36H42zM2,36H3V37H2zM3,36H4V37H3zM4,36H5V37H4zM5,36H6V37H5zM6,36H7V37H6zM7,36H8V37H7zM8,36H9V37H8zM10,36H11V37H10zM11,36H12V37H11zM12,36H13V37H12zM13,36H14V37H13zM14,36H15V37H14zM16,36H17V37H16zM18,36H19V37H18zM20,36H21V37H20zM23,36H24V37H23zM25,36H26V37H25zM26,36H27V37H26zM30,36H31V37H30zM31,36H32V37H31zM33,36H34V37H33zM34,36H35V37H34zM36,36H37V37H36zM38,36H39V37H38zM39,36H40V37H39zM41,36H42V37H41zM2,37H3V38H2zM8,37H9V38H8zM10,37H11V38H10zM12,37H13V38H12zM14,37H15V38H14zM16,37H17V38H16zM19,37H20V38H19zM22,37H23V38H22zM26,37H27V38H26zM27,37H28V38H27zM28,37H29V38H28zM29,37H30V38H29zM32,37H33V38H32zM34,37H35V38H34zM38,37H39V38H38zM41,37H42V38H41zM42,37H43V38H42zM2,38H3V39H2zM4,38H5V39H4zM5,38H6V39H5zM6,38H7V39H6zM8,38H9V39H8zM12,38H13V39H12zM13,38H14V39H13zM15,38H16V39H15zM17,38H18V39H17zM23,38H24V39H23zM25,38H26V39H25zM26,38H27V39H26zM27,38H28V39H27zM28,38H29V39H28zM31,38H32V39H31zM32,38H33V39H32zM34,38H35V39H34zM35,38H36V39H35zM36,38H37V39H36zM37,38H38V39H37zM38,38H39V39H38zM40,38H41V39H40zM41,38H42V39H41zM42,38H43V39H42zM2,39H3V40H2zM4,39H5V40H4zM5,39H6V40H5zM6,39H7V40H6zM8,39H9V40H8zM10,39H11V40H10zM12,39H13V40H12zM13,39H14V40H13zM17,39H18V40H17zM18,39H19V40H18zM19,39H20V40H19zM21,39H22V40H21zM26,39H27V40H26zM28,39H29V40H28zM29,39H30V40H29zM31,39H32V40H31zM38,39H39V40H38zM40,39H41V40H40zM42,39H43V40H42zM2,40H3V41H2zM4,40H5V41H4zM5,40H6V41H5zM6,40H7V41H6zM8,40H9V41H8zM10,40H11V41H10zM15,40H16V41H15zM19,40H20V41H19zM20,40H21V41H20zM21,40H22V41H21zM23,40H24V41H23zM24,40H25V41H24zM30,40H31V41H30zM32,40H33V41H32zM34,40H35V41H34zM37,40H38V41H37zM39,40H40V41H39zM40,40H41V41H40zM41,40H42V41H41zM42,40H43V41H42zM2,41H3V42H2zM8,41H9V42H8zM11,41H12V42H11zM12,41H13V42H12zM13,41H14V42H13zM16,41H17V42H16zM19,41H20V42H19zM20,41H21V42H20zM21,41H22V42H21zM23,41H24V42H23zM25,41H26V42H25zM26,41H27V42H26zM28,41H29V42H28zM29,41H30V42H29zM30,41H31V42H30zM32,41H33V42H32zM34,41H35V42H34zM35,41H36V42H35zM36,41H37V42H36zM38,41H39V42H38zM39,41H40V42H39zM41,41H42V42H41zM2,42H3V43H2zM3,42H4V43H3zM4,42H5V43H4zM5,42H6V43H5zM6,42H7V43H6zM7,42H8V43H7zM8,42H9V43H8zM10,42H11V43H10zM11,42H12V43H11zM12,42H13V43H12zM14,42H15V43H14zM15,42H16V43H15zM17,42H18V43H17zM18,42H19V43H18zM19,42H20V43H19zM20,42H21V43H20zM22,42H23V43H22zM23,42H24V43H23zM24,42H25V43H24zM25,42H26V43H25zM27,42H28V43H27zM29,42H30V43H29zM32,42H33V43H32zM33,42H34V43H33zM34,42H35V43H34zM41,42H42V43H41z" id="qr-path" fill="#000000" fill-opacity="1" fill-rule="nonzero" stroke="none" /></svg>
